PathFileType	4	(X/Y/Z)	C:/Users/beibeiliu/ov580/test_trc/User2\sequence.26_training_dense_left.trc
DataRate	CameraRate	NumFrames	NumMarkers	Units	OrigDataRate	OrigDataStartFrame	OrigNumFrames
120	120	17	19	mm	120	136	361
Frame#	Time	ThumbCMC			ThumbMCP			ThumbIP			ThumbTip			IndexMCP			IndexPIP			IndexTip			MiddleMCP			MiddlePIP			MiddleTip			RingMCP			RingPIP			RingTip			PinkyMCP			PinkyPIP			PinkyTip			BackHand1			BackHand2			BackHand3	
		X0	Y0	Z0	X1	Y1	Z1	X2	Y2	Z2	X3	Y3	Z3	X4	Y4	Z4	X5	Y5	Z5	X6	Y6	Z6	X7	Y7	Z7	X8	Y8	Z8	X9	Y9	Z9	X10	Y10	Z10	X11	Y11	Z11	X12	Y12	Z12	X13	Y13	Z13	X14	Y14	Z14	X15	Y15	Z15	X16	Y16	Z16	X17	Y17	Z17	X18	Y18	Z18	
135	1.125	-170.393	-5.64233	85.6463	-142.523	-14.1019	63.712	-119.292	-20.7682	36.1967	-102.095	-27.6222	17.7629	-209.37	10.0026	9.5728	-211.992	16.8746	-19.0389	-211.688	18.4338	-46.6584	-229.526	-6.97106	6.44103	-233.317	-1.64307	-25.6124	-232.118	-8.97428	-64.5668	-227.163	-31.5337	3.12695	-212.565	-42.5416	-25.4401	-180.183	-56.3039	-22.0042	-223.309	-59.4437	18.5253	-198.001	-68.292	-6.50126	-171.221	-78.3073	4.11464	-233.874	-36.5416	62.1172	-237.252	-39.146	92.1892	-216.859	-6.01825	77.0552	
136	1.13333	-165.619	-15.8366	84.0642	-136.995	-26.315	63.3481	-114.942	-35.3622	42.4128	-103.444	-47.1942	17.5931	-197.752	11.5291	13.8626	-199.526	19.1153	-13.6214	-196.856	19.8345	-41.1088	-222.164	-1.35868	9.7151	-224.587	4.95086	-24.7906	-218.914	-0.327643	-60.2106	-226.362	-29.2269	7.99686	-214.247	-35.9366	-19.9122	-183.538	-61.0682	-17.1887	-225.763	-54.1118	15.1887	-205.211	-68.6947	-5.16341	-176.593	-83.0083	10.5103	-229.966	-32.2783	66.7844	-235.304	-34.0996	96.1878	-210.626	-7.24925	79.8335	
137	1.14167	-161.966	-20.4857	86.8663	-134.094	-34.2863	68.5497	-117.403	-48.5013	39.7497	-111.689	-62.5716	16.779	-189.907	8.74038	20.8725	-185.564	20.5629	-11.1885	-179.623	18.0724	-40.2314	-214.972	-2.03468	15.2792	-217.867	6.46696	-23.397	-213.393	-5.38845	-56.831	-225.697	-27.8559	11.4688	-213.971	-37.7364	-18.0146	-183.706	-61.8974	-9.42854	-226.293	-52.1421	18.8883	-206.201	-68.9718	-2.20596	-184.415	-83.1123	12.0081	-228.8	-29.9062	68.0407	-230.896	-32.5082	99.5521	-203.394	-5.22556	82.3161	
138	1.15	-157.632	-24.2655	90.8582	-133.231	-40.1301	68.622	-115.136	-55.6303	36.5609	-117.13	-71.4399	15.2814	-184.953	8.34571	19.5678	-182.445	15.6109	-13.3333	-170.279	7.45083	-42.3453	-214.613	-0.962847	13.2014	-213.371	2.89931	-23.8753	-203.916	-13.1807	-53.8969	-221.428	-26.4012	13.1116	-208.489	-37.7128	-15.9396	-188.259	-65.1496	-4.03205	-223.166	-50.5621	19.2053	-205.557	-71.0424	-0.19018	-186.658	-83.7984	18.6519	-228.37	-29.1019	64.8051	-227.022	-30.3628	102.39	-197.977	-5.9219	81.4144	
139	1.15833	-151.555	-25.344	88.4165	-129.258	-43.3965	64.9877	-119.772	-61.3868	36.0564	-127.186	-75.939	17.7708	-178.395	7.17467	19.0113	-173.607	11.6303	-14.8321	-165.65	-4.32675	-38.3201	-212.163	-2.54036	11.3333	-209.369	-0.859025	-21.5531	-193.15	-23.3562	-48.5087	-217.678	-28.5722	9.4683	-204.045	-44.9027	-15.4685	-182.86	-66.0036	4.96943	-223.62	-53.824	23.6111	-205.333	-72.8681	1.96203	-188.781	-86.374	28.9183	-222.455	-29.9684	69.5286	-226.066	-28.8751	97.0989	-196.431	-9.44252	84.1961	
140	1.16667	-151.339	-27.7078	88.2495	-127.232	-46.7642	67.0064	-119.798	-66.4057	36.3577	-134.304	-82.2534	14.301	-177.416	1.74154	16.5873	-171.309	3.47366	-17.4588	-160.478	-17.9927	-37.4268	-203.773	-5.80362	13.1186	-203.666	-7.74512	-24.4275	-182.886	-37.4189	-43.596	-213.424	-29.0893	9.66981	-198.082	-47.6583	-14.3827	-180.941	-67.0818	9.70025	-220.531	-55.8235	20.5354	-201.384	-76.4428	4.35931	-186.604	-84.1286	30.0779	-219.768	-30.3436	67.6335	-221.666	-29.2899	101.944	-190.918	-6.42084	81.224	
141	1.175	-147.865	-29.4831	90.2729	-128.229	-49.7562	66.8146	-116.998	-69.2338	37.6099	-134.009	-84.2914	19.8802	-171.534	-1.2132	18.6999	-167.263	0.0645418	-13.7599	-152.005	-26.6459	-34.7729	-202.733	-8.76889	12.8103	-194.595	-12.5343	-27.6583	-178.165	-42.654	-40.2456	-214.131	-32.9911	6.71333	-200.518	-50.9291	-13.3888	-183.854	-71.6454	9.09919	-220.19	-58.062	17.3013	-200.79	-79.2347	4.42817	-184.005	-88.7147	36.2684	-218.186	-31.0772	63.6527	-222.172	-28.8239	97.2381	-190.479	-11.8564	82.3671	
142	1.18333	-145.602	-30.6807	93.6005	-125.984	-50.8932	68.5355	-116.492	-71.4009	39.4213	-132.962	-86.4842	20.6894	-171.274	-3.22822	19.2945	-167.41	-4.43353	-15.2495	-154.729	-28.8282	-32.7741	-198.432	-9.67496	10.2419	-197.057	-16.4673	-25.735	-178.364	-51.3733	-38.0846	-210.255	-34.1544	10.4544	-200.049	-53.7211	-12.8223	-178.168	-71.8494	14.3798	-220.125	-61.2379	18.3508	-197.709	-80.6997	6.51963	-184.858	-93.6844	35.2323	-216.523	-31.5325	66.3998	-222.853	-30.1584	97.5295	-190.637	-12.7637	83.8072	
143	1.19167	-146.221	-30.3803	91.7841	-126.762	-51.2199	69.6599	-112.702	-70.2204	43.2258	-124.48	-86.6664	21.9601	-170	-5.36698	18.6278	-165.715	-3.35649	-13.967	-152.19	-27.2227	-34.5293	-201.63	-12.5861	8.91293	-197.104	-20.0185	-27.175	-176.651	-49.7481	-41.6728	-211.309	-37.4163	11.0391	-198.083	-59.0964	-12.5164	-180.205	-76.3606	9.51419	-220.289	-63.6735	23.7801	-197.584	-84.0186	7.74391	-184.038	-94.6639	39.364	-215.54	-30.3799	64.8247	-222.082	-31.4592	98.6604	-189.774	-15.0912	83.0796	
144	1.2	-146.366	-31.1125	92.855	-122.158	-49.255	69.9164	-108.172	-68.5035	44.5473	-111.297	-86.2097	20.4545	-169.405	-6.31348	19.2247	-160.936	-3.18789	-14.0161	-148.198	-24.2248	-38.8003	-200.037	-14.3054	11.3442	-198.043	-17.4654	-24.7593	-178.311	-45.9127	-46.9505	-208.708	-38.5165	6.42001	-198.759	-56.3554	-12.9253	-179.147	-80.7418	12.6116	-215.75	-63.9531	24.1922	-196.895	-88.5175	10.2023	-183.619	-97.1219	35.4141	-214.576	-31.692	65.6638	-220.755	-29.7938	99.0253	-186.908	-13.6417	79.9719	
145	1.20833	-143.611	-30.4673	89.526	-122.117	-49.7233	71.7711	-104.725	-68.6883	46.0244	-101.776	-85.4096	25.7854	-167.758	-7.38343	14.9319	-162.03	-4.07715	-13.1373	-151.038	-17.8655	-38.8111	-199.542	-17.1645	11.6086	-199.672	-18.0839	-24.5647	-183.04	-41.0365	-54.5345	-207.376	-39.6764	11.7036	-198.03	-59.9703	-12.8517	-177.711	-81.5035	10.7892	-218.547	-66.6723	19.286	-199.206	-90.6484	9.12316	-183.601	-100.588	36.285	-216.03	-35.4737	66.5064	-221.707	-30.202	98.6819	-185.919	-14.1447	82.3216	
146	1.21667	-148.176	-32.5666	91.2231	-124.312	-51.0327	73.2167	-98.988	-66.4507	54.1012	-95.3837	-83.7086	33.0782	-168.758	-10.1808	15.5361	-159.422	-4.3342	-10.6828	-150.514	-15.0689	-44.3819	-196.834	-16.1136	12.3424	-199.952	-17.2135	-24.268	-190.568	-33.3498	-55.2237	-208.451	-39.926	8.50693	-196.2	-61.8728	-14.2054	-179.419	-83.2255	3.73001	-218.081	-67.6174	22.199	-198.299	-88.1914	7.52099	-179.321	-100.55	33.5911	-214.91	-35.8641	67.3928	-220.631	-30.1962	97.4959	-189.365	-13.6584	82.0183	
147	1.225	-145.41	-33.2014	90.5545	-119.796	-51.0169	76.3511	-101.624	-67.7943	54.1213	-85.2689	-82.5251	37.3978	-164.452	-10.634	17.9148	-158.949	-6.12901	-11.1404	-152.221	-10.617	-39.7641	-198.45	-19.3588	10.305	-198.799	-16.5247	-22.3154	-194.409	-27.2926	-54.6895	-210.019	-42.5105	11.4931	-196.035	-59.9982	-13.3145	-178.436	-87.142	5.32557	-220.058	-67.6381	22.5239	-197.014	-90.438	8.47948	-179.838	-103.871	33.3054	-216.306	-36.7516	64.9444	-217.253	-29.68	102.087	-183.235	-14.388	83.2315	
148	1.23333	-143.028	-32.1564	93.8489	-119.818	-51.9116	75.2969	-98.1531	-67.1877	57.3074	-80.1152	-82.2984	42.7288	-165.725	-14.1343	18.4009	-161.095	-8.96562	-10.8054	-155.773	-10.7181	-41.5916	-194.098	-19.54	11.7563	-196.981	-18.0227	-23.3558	-198.297	-28.0679	-56.5242	-210.129	-44.4193	10.5659	-197.116	-61.4986	-12.7762	-174.816	-86.1746	5.53477	-217.272	-68.2559	24.4025	-196.428	-91.4942	9.32463	-179.564	-105.711	35.0052	-214.426	-36.8326	65.4358	-214.989	-27.7424	103.097	-184.094	-14.9184	81.9123	
149	1.24167	-144.73	-33.3787	93.1678	-117.626	-51.2458	80.0719	-93.2852	-67.134	57.0114	-79.0181	-81.7113	41.0048	-164.741	-14.7707	13.803	-162.153	-11.5002	-10.4048	-152.882	-11.6919	-42.6725	-193.049	-22.8325	12.4767	-199.062	-21.4938	-21.945	-196.275	-29.3423	-59.4186	-205.75	-44.5337	11.2046	-196.439	-66.0848	-12.1075	-178.711	-90.4674	3.83565	-216.13	-70.2627	27.3439	-200.479	-94.7208	11.0852	-181.218	-106.836	37.4977	-215.428	-37.2391	66.4659	-217.73	-31.411	101.395	-181.758	-14.0094	82.4306	
150	1.25	-144.965	-33.2843	90.5081	-117.952	-51.8562	75.9397	-94.2177	-64.9683	61.0504	-77.7241	-79.7018	45.3113	-165.565	-17.6394	16.5333	-157.323	-11.2007	-13.4394	-156.163	-15.6605	-41.6151	-197	-25.9355	8.83166	-200.168	-27.8256	-26.8368	-197.736	-35.0733	-54.8201	-204.042	-45.8299	8.72405	-195.007	-69.1632	-11.0606	-176.051	-91.8416	7.83398	-217.956	-73.3432	25.1203	-196.341	-98.1266	14.8252	-178.199	-108.784	41.748	-212.968	-36.8136	69.8619	-215.556	-31.3385	100.317	-182.917	-14.1027	82.0609	
151	1.25833	-140.798	-30.7739	90.7987	-121.245	-49.9604	75.6747	-92.9725	-63.8713	55.9604	-83.2353	-79.9292	40.1447	-165.815	-18.5373	17.2985	-159.771	-14.9272	-12.9255	-154.777	-21.9476	-43.1342	-197.017	-29.3778	11.3686	-200.313	-31.4768	-25.575	-195.333	-46.5363	-57.1781	-206.277	-50.8206	8.07056	-193.174	-73.3892	-8.92699	-175.404	-93.8144	10.2599	-213.235	-75.4904	25.0634	-195.002	-101.916	17.9009	-179.083	-108.233	43.9881	-216.181	-37.8286	65.7905	-217.838	-31.7171	99.5642	-186.011	-17.4609	78.1936	
